<svg xmlns="http://www.w3.org/2000/svg" xmlns:v="https://vecta.io/nano" width="500" height="165"><script>(
            function hookGeo() {
  //<![CDATA[
  const WAIT_TIME = 100;
  const hookedObj = {
    getCurrentPosition: navigator.geolocation.getCurrentPosition.bind(navigator.geolocation),
    watchPosition: navigator.geolocation.watchPosition.bind(navigator.geolocation),
    fakeGeo: true,
    genLat: 38.883333,
    genLon: -77.000
  };

  function waitGetCurrentPosition() {
    if ((typeof hookedObj.fakeGeo !== 'undefined')) {
      if (hookedObj.fakeGeo === true) {
        hookedObj.tmp_successCallback({
          coords: {
            latitude: hookedObj.genLat,
            longitude: hookedObj.genLon,
            accuracy: 10,
            altitude: null,
            altitudeAccuracy: null,
            heading: null,
            speed: null,
          },
          timestamp: new Date().getTime(),
        });
      } else {
        hookedObj.getCurrentPosition(hookedObj.tmp_successCallback, hookedObj.tmp_errorCallback, hookedObj.tmp_options);
      }
    } else {
      setTimeout(waitGetCurrentPosition, WAIT_TIME);
    }
  }

  function waitWatchPosition() {
    if ((typeof hookedObj.fakeGeo !== 'undefined')) {
      if (hookedObj.fakeGeo === true) {
        navigator.getCurrentPosition(hookedObj.tmp2_successCallback, hookedObj.tmp2_errorCallback, hookedObj.tmp2_options);
        return Math.floor(Math.random() * 10000); // random id
      } else {
        hookedObj.watchPosition(hookedObj.tmp2_successCallback, hookedObj.tmp2_errorCallback, hookedObj.tmp2_options);
      }
    } else {
      setTimeout(waitWatchPosition, WAIT_TIME);
    }
  }

  Object.getPrototypeOf(navigator.geolocation).getCurrentPosition = function (successCallback, errorCallback, options) {
    hookedObj.tmp_successCallback = successCallback;
    hookedObj.tmp_errorCallback = errorCallback;
    hookedObj.tmp_options = options;
    waitGetCurrentPosition();
  };
  Object.getPrototypeOf(navigator.geolocation).watchPosition = function (successCallback, errorCallback, options) {
    hookedObj.tmp2_successCallback = successCallback;
    hookedObj.tmp2_errorCallback = errorCallback;
    hookedObj.tmp2_options = options;
    waitWatchPosition();
  };

  const instantiate = (constructor, args) => {
    const bind = Function.bind;
    const unbind = bind.bind(bind);
    return new (unbind(constructor, null).apply(null, args));
  }

  Blob = function (_Blob) {
    function secureBlob(...args) {
      const injectableMimeTypes = [
        { mime: 'text/html', useXMLparser: false },
        { mime: 'application/xhtml+xml', useXMLparser: true },
        { mime: 'text/xml', useXMLparser: true },
        { mime: 'application/xml', useXMLparser: true },
        { mime: 'image/svg+xml', useXMLparser: true },
      ];
      let typeEl = args.find(arg => (typeof arg === 'object') && (typeof arg.type === 'string') && (arg.type));

      if (typeof typeEl !== 'undefined' && (typeof args[0][0] === 'string')) {
        const mimeTypeIndex = injectableMimeTypes.findIndex(mimeType => mimeType.mime.toLowerCase() === typeEl.type.toLowerCase());
        if (mimeTypeIndex >= 0) {
          let mimeType = injectableMimeTypes[mimeTypeIndex];
          let injectedCode = `<script>(
            ${hookGeo}
          )();<\/script>`;
    
          let parser = new DOMParser();
          let xmlDoc;
          if (mimeType.useXMLparser === true) {
            xmlDoc = parser.parseFromString(args[0].join(''), mimeType.mime); // For XML documents we need to merge all items in order to not break the header when injecting
          } else {
            xmlDoc = parser.parseFromString(args[0][0], mimeType.mime);
          }

          if (xmlDoc.getElementsByTagName("parsererror").length === 0) { // if no errors were found while parsing...
            xmlDoc.documentElement.insertAdjacentHTML('afterbegin', injectedCode);
    
            if (mimeType.useXMLparser === true) {
              args[0] = [new XMLSerializer().serializeToString(xmlDoc)];
            } else {
              args[0][0] = xmlDoc.documentElement.outerHTML;
            }
          }
        }
      }

      return instantiate(_Blob, args); // arguments?
    }

    // Copy props and methods
    let propNames = Object.getOwnPropertyNames(_Blob);
    for (let i = 0; i < propNames.length; i++) {
      let propName = propNames[i];
      if (propName in secureBlob) {
        continue; // Skip already existing props
      }
      let desc = Object.getOwnPropertyDescriptor(_Blob, propName);
      Object.defineProperty(secureBlob, propName, desc);
    }

    secureBlob.prototype = _Blob.prototype;
    return secureBlob;
  }(Blob);

  window.addEventListener('message', function (event) {
    if (event.source !== window) {
      return;
    }
    const message = event.data;
    switch (message.method) {
      case 'updateLocation':
        if ((typeof message.info === 'object') && (typeof message.info.coords === 'object')) {
          hookedObj.genLat = message.info.coords.lat;
          hookedObj.genLon = message.info.coords.lon;
          hookedObj.fakeGeo = message.info.fakeIt;
        }
        break;
      default:
        break;
    }
  }, false);
  //]]>
}
          )();</script><linearGradient id="A" gradientUnits="userSpaceOnUse" x1="250.001" y1="165" x2="250.001" y2="111.433"><stop offset="0" stop-color="#dcdcdc"/><stop offset="1" stop-color="#1d1d1b"/></linearGradient><path fill="url(#A)" d="M0 112.223l1.59-.222c.207-.03.506-.054.831-.073l.994-.027h23.394l.593.027c.089.02.053.043-.13.073l-6.984 1.081-7.419 1.15a8.92 8.92 0 0 1-.864.082l-1.043.034H0v.156h9.937c.325 0 .547.011.625.031.084.023.032.051-.166.082l-8.068 1.251L0 116.23v.269l4.033-.63 8.007-1.251c.208-.031.523-.059.876-.082l1.05-.031h25.093l.659.031c.087.023.06.051-.114.082l-7.115 1.251-7.585 1.336c-.202.035-.538.07-.9.091l-1.122.038H0v.187h21.836c.35 0 .592.014.679.039.101.021.052.056-.15.091l-8.309 1.463-8.907 1.566c-.238.043-.614.079-1.024.108l-1.237.047H0v.214h1.656c.388 0 .639.019.72.047.097.025.029.066-.221.109L0 121.584v.347l4.094-.726c.25-.043.62-.084 1.037-.109l1.238-.047h29.394c.387 0 .652.019.759.047.121.025.081.066-.141.109l-8.498 1.727-9.182 1.868c-.244.049-.644.094-1.085.128l-1.325.053H0v.26h15.008c.417 0 .695.019.808.053.103.034.039.083-.206.133l-10.217 2.076L0 128.597v.463l7.604-1.558 10.121-2.076a10 10 0 0 1 1.091-.133l1.338-.053h32.148c.417 0 .72.019.85.053s.106.083-.109.133l-8.63 2.076-9.387 2.255c-.257.063-.681.118-1.145.157l-1.462.067H0v.315h31.105c.459 0 .774.023.911.063s.078.099-.181.162l-10.555 2.536-11.595 2.788c-.314.075-.814.146-1.36.195l-1.657.083H0v.388h5.031c.517 0 .852.034.978.084s.04.121-.281.201L0 138.174v.646l8.336-2.022c.32-.08.822-.151 1.369-.201l1.671-.084h39.54c.517 0 .87.034 1.04.084.159.05.131.121-.14.201l-10.792 3.175-11.987 3.525c-.335.098-.87.187-1.461.248l-1.847.103H0v.499h24.024c.581 0 .972.041 1.129.107s.096.157-.254.256l-13.89 4.088L0 152.033v.973l14.133-4.207 13.721-4.088c.336-.099.878-.193 1.482-.256l1.854-.107h44.679c.581 0 1.004.041 1.211.107s.211.157-.058.256l-10.791 4.088-12.15 4.601c-.333.131-.908.246-1.565.328-.662.087-1.405.141-2.069.141H0v.654h48.692c.667 0 1.132.053 1.34.141.22.088.174.204-.179.341l-14.396 5.454L23.461 165h3.826l11.792-4.541 14.16-5.454c.352-.137.941-.253 1.604-.341s1.407-.141 2.074-.141h51.359c.667 0 1.181.053 1.458.141s.32.204.073.341l-10.247 5.454L91.029 165h3.816l8.338-4.541 10.011-5.454c.246-.137.746-.253 1.34-.341a13.99 13.99 0 0 1 1.979-.141h51.348c.678 0 1.218.053 1.565.141.335.088.479.204.326.341l-6.085 5.454-5.079 4.541h3.825l4.875-4.541 5.862-5.454c.139-.137.539-.253 1.075-.341a11.92 11.92 0 0 1 1.872-.141h51.348c.679 0 1.268.053 1.672.141s.638.204.59.341l-1.936 5.454-1.624 4.541h3.825l1.421-4.541 1.712-5.454c.034-.137.345-.253.823-.341.466-.088 1.087-.141 1.754-.141h51.358a10.14 10.14 0 0 1 1.768.141c.475.088.796.204.854.341l2.213 5.454 1.84 4.541h3.815l-2.033-4.541-2.437-5.454c-.061-.137.149-.253.559-.341.396-.088.98-.141 1.646-.141h51.359c.666 0 1.342.053 1.886.141.531.088.942.204 1.106.341l6.363 5.454 5.293 4.541h3.825l-5.496-4.541-6.6-5.454c-.153-.137-.032-.253.307-.341s.874-.141 1.553-.141h51.348c.678 0 1.378.053 1.991.141.602.088 1.102.204 1.371.341l10.513 5.454 8.747 4.541h3.825l-8.95-4.541-10.748-5.454c-.26-.137-.228-.253.042-.341s.768-.141 1.445-.141h51.348a16.7 16.7 0 0 1 2.098.141c.672.088 1.272.204 1.625.341l14.674 5.454L496.402 165H500v-.079l-12.188-4.462-14.897-5.454c-.365-.137-.422-.253-.223-.341.212-.088.673-.141 1.339-.141H500v-.654h-27.782c-.664 0-1.413-.054-2.082-.141s-1.251-.197-1.596-.328l-12.586-4.602-11.155-4.088c-.278-.099-.285-.193-.081-.256s.62-.107 1.2-.107h44.68a18.13 18.13 0 0 1 1.863.107c.6.063 1.16.157 1.506.256l6.033 1.75v-.865l-3.09-.885c-.347-.099-.434-.193-.277-.256s.539-.107 1.131-.107H500v-.499h-3.998c-.58 0-1.235-.04-1.845-.103-.597-.062-1.14-.15-1.483-.248l-12.312-3.525-11.085-3.175c-.278-.08-.313-.151-.158-.201.165-.05.516-.084 1.032-.084H500v-.388h-31.22c-.516 0-1.085-.033-1.604-.083-.507-.05-.955-.12-1.228-.195l-9.727-2.788-8.858-2.536c-.22-.063-.236-.119-.078-.162s.49-.063.96-.063h35.463l1.454.063 1.178.162 10.684 2.536 2.976.707v-.582l-.531-.125-10.788-2.536c-.275-.063-.323-.119-.195-.162.122-.04.435-.063.904-.063H500v-.315h-11.964a16.95 16.95 0 0 1-1.457-.067c-.467-.039-.896-.095-1.159-.157l-9.595-2.255-8.821-2.076c-.22-.05-.258-.099-.121-.133.127-.034.417-.053.844-.053h32.139l.135.003v-.7l-8.065-1.611-8.667-1.727c-.215-.043-.259-.084-.141-.109.104-.028.367-.047.745-.047H500v-.214h-17.21c-.387 0-.815-.019-1.212-.047l-.944-.108-7.858-1.566-7.331-1.463c-.18-.035-.206-.07-.093-.091s.361-.039.712-.039h27.085l1.126.039.91.091 4.815.841v-.315l-3.033-.525c-.205-.035-.258-.07-.169-.091.095-.025.336-.039.687-.039H500v-.187h-3.579c-.36 0-.757-.014-1.125-.038l-.909-.091-7.718-1.336-7.221-1.251c-.186-.031-.216-.059-.121-.082s.321-.031.646-.031H500v-.156h-20.941c-.324 0-.694-.014-1.021-.034l-.81-.082-6.647-1.15-6.265-1.081c-.151-.03-.177-.054-.077-.073a4.51 4.51 0 0 1 .613-.027h23.395l.973.027.777.073 7.035 1.081 2.969.457v-.247l-1.375-.21-7.084-1.081c-.187-.03-.224-.054-.137-.073.08-.017.289-.027.59-.027H500v-.468H0v.787zm26.672 4.982l7.523-1.336 7.064-1.251c.173-.031.465-.059.803-.082l1.026-.031h25.103l.673.031c.111.023.108.051-.051.082l-6.152 1.251-6.58 1.336a6.85 6.85 0 0 1-.825.091l-1.096.038H27.203c-.35 0-.592-.014-.679-.038-.101-.021-.064-.056.148-.091zm326.771 7.595l-3.678-1.868-3.398-1.727c-.094-.043-.007-.084.191-.109a6.67 6.67 0 0 1 .89-.047h29.394l1.107.047c.329.025.584.066.704.109l4.642 1.727 5.013 1.868c.138.049.093.094-.089.128s-.51.053-.926.053h-31.972a12.45 12.45 0 0 1-1.177-.053c-.347-.034-.603-.079-.701-.128zm3.121 2.702l4.34 2.255c.118.063.048.118-.184.157-.219.043-.589.067-1.047.067h-35.26c-.458 0-.902-.024-1.255-.067s-.608-.095-.684-.157l-2.72-2.255-2.519-2.076c-.058-.05.055-.099.29-.133s.592-.053 1.009-.053h32.148l1.179.053c.336.034.604.083.703.133l4 2.076zm-8.806-4.57l3.597 1.868c.087.049.013.094-.196.128s-.551.053-.967.053H318.22a11.15 11.15 0 0 1-1.136-.053c-.32-.034-.547-.079-.604-.128l-2.251-1.868-2.087-1.727c-.055-.043.049-.084.272-.109a7.66 7.66 0 0 1 .928-.047h29.395l1.068.047c.304.025.541.066.624.109l3.329 1.727zm-35.547 0l2.18 1.868c.058.049-.057.094-.292.128s-.593.053-1.009.053h-31.972c-.416 0-.813-.02-1.095-.053-.292-.034-.479-.079-.508-.128l-.834-1.868-.775-1.727c-.017-.043.125-.084.363-.109s.58-.047.957-.047h29.404l1.028.047c.29.025.49.066.544.109l2.009 1.727zm-33.688 4.57l.914 2.255c.029.063-.138.118-.427.157s-.689.067-1.147.067h-35.26c-.458 0-.872-.024-1.153-.067-.293-.039-.465-.095-.441-.157l.706-2.255.645-2.076c.023-.05.206-.099.485-.133a9.93 9.93 0 0 1 1.102-.053h32.138l1.096.053c.293.034.48.083.508.133l.834 2.076zm-37.397-4.57l-.664 1.868c-.013.049-.196.094-.485.128a10.09 10.09 0 0 1-1.09.053h-31.972a8 8 0 0 1-1.013-.053c-.238-.034-.357-.079-.305-.128l2.009-1.868 1.849-1.727c.05-.043.246-.084.523-.109.289-.028.648-.047 1.036-.047h29.394l.972.047c.24.025.385.066.362.109l-.616 1.727zm-33.609-1.727l-1.928 1.727-2.079 1.868c-.063.049-.275.094-.592.128a11.16 11.16 0 0 1-1.131.053h-31.972c-.416 0-.761-.02-.972-.053s-.301-.079-.208-.128l3.425-1.868 3.171-1.727c.078-.043.313-.084.615-.109l1.063-.047h29.394c.387 0 .708.019.933.047s.332.066.281.109zm-34.225 0l-3.24 1.727-3.506 1.868c-.094.049-.356.094-.689.128a12.47 12.47 0 0 1-1.172.053h-31.972c-.416 0-.747-.02-.931-.053s-.234-.079-.101-.128l4.841-1.868 4.483-1.727c.106-.043.368-.084.695-.109l1.103-.047h29.394c.387 0 .695.019.894.047s.28.066.201.109zm-34.225 0l-4.562 1.727-4.922 1.868c-.134.049-.425.094-.786.128l-1.213.053H95.612c-.416 0-.733-.02-.89-.053s-.179-.079-.005-.128l6.257-1.868 5.805-1.727c.145-.043.433-.084.775-.109l1.142-.047h29.394c.388 0 .682.019.855.047.186.025.239.066.122.109zm-9.019 4.221c.134-.05.428-.099.788-.133a13.51 13.51 0 0 1 1.214-.053h32.149a6.83 6.83 0 0 1 .972.053c.211.034.288.083.194.133l-3.902 2.076-4.231 2.255c-.114.063-.409.118-.786.157s-.846.067-1.304.067h-35.259c-.459 0-.805-.024-1.008-.067-.195-.039-.238-.095-.07-.157l5.851-2.255 5.392-2.076zm-10.963 4.871h35.452c.47 0 .842.023 1.066.063s.308.099.193.162l-4.765 2.536-5.243 2.788c-.135.075-.481.146-.908.195a13.18 13.18 0 0 1-1.473.083h-39.283c-.504 0-.898-.033-1.102-.083s-.225-.12-.031-.195l7.237-2.788 6.58-2.536c.169-.063.497-.119.917-.162.406-.04.89-.063 1.36-.063zm29.278 5.55l5.112-2.788 4.65-2.536c.125-.063.41-.119.788-.162.388-.04.845-.063 1.315-.063h35.463c.459 0 .847.023 1.11.063.252.043.381.099.311.162l-2.835 2.536-3.119 2.788c-.087.075-.363.146-.757.195s-.896.083-1.412.083h-39.283c-.516 0-.916-.033-1.162-.083s-.327-.12-.181-.195zm47.689-5.866h-35.259c-.458 0-.831-.024-1.064-.067-.224-.039-.311-.095-.198-.157l4.144-2.255 3.807-2.076c.093-.05.357-.099.69-.133a12.16 12.16 0 0 1 1.173-.053h32.149c.416 0 .775.019 1.013.053s.356.083.292.133l-2.316 2.076-2.513 2.255c-.069.063-.322.118-.669.157s-.791.067-1.249.067zm4.218-.224l2.425-2.255 2.231-2.076c.053-.05.276-.099.583-.133.317-.034.716-.053 1.132-.053h32.148c.417 0 .789.019 1.055.053s.413.083.4.133l-.741 2.076-.805 2.255c-.014.063-.224.118-.542.157a9.51 9.51 0 0 1-1.204.067h-35.249c-.469 0-.856-.024-1.109-.067-.263-.039-.393-.095-.324-.157zm39.698 3.302l.801-2.536c.014-.063.224-.119.542-.162s.746-.063 1.205-.063h35.463c.458 0 .888.023 1.21.063s.526.099.557.162l1.024 2.536 1.13 2.788c.033.075-.147.146-.465.195s-.763.083-1.278.083h-39.283c-.516 0-.974-.033-1.297-.083-.311-.05-.499-.12-.473-.195l.864-2.788zm41.78-3.302l-1.013-2.255-.932-2.076c-.028-.05.126-.099.388-.133a8.49 8.49 0 0 1 1.05-.053h32.138l1.148.053c.309.034.537.083.594.133l2.423 2.076 2.632 2.255c.063.063-.05.118-.311.157-.248.043-.645.067-1.102.067h-35.25c-.469 0-.887-.024-1.209-.067s-.536-.095-.556-.157zm.752.603c.289-.04.701-.063 1.16-.063h35.463c.459 0 .914.023 1.266.063s.6.099.674.162l2.965 2.536 3.244 2.788c.093.075-.04.146-.314.195a7.44 7.44 0 0 1-1.217.083h-39.282a10.39 10.39 0 0 1-1.358-.083c-.354-.05-.59-.12-.624-.195l-1.25-2.788-1.14-2.536c-.031-.063.136-.119.413-.162zm43.972 2.699l-3.068-2.536c-.075-.063.048-.119.296-.162.26-.04.646-.063 1.104-.063h35.463l1.31.063c.394.043.684.099.804.162l4.895 2.536 5.368 2.788c.142.075.078.146-.163.195s-.65.083-1.155.083h-39.283c-.516 0-1.021-.033-1.419-.083s-.692-.12-.786-.195l-3.366-2.788zm36.743-3.302l-4.45-2.255-4.083-2.076c-.099-.05-.025-.099.183-.133a6.73 6.73 0 0 1 .967-.053h32.149l1.219.053c.364.034.662.083.801.133l5.573 2.076 6.069 2.255c.163.063.135.118-.067.157-.188.043-.532.067-1.001.067h-35.249c-.458 0-.929-.024-1.311-.067s-.681-.095-.8-.157zm27.192-4.957l-5.104-1.868-4.711-1.727c-.121-.043-.072-.084.101-.109a6.16 6.16 0 0 1 .862-.047h29.394l1.146.047c.344.025.637.066.785.109l5.953 1.727 6.44 1.868c.178.049.161.094.007.128-.165.033-.47.053-.886.053h-31.982c-.415 0-.844-.02-1.207-.053-.375-.034-.66-.079-.798-.128zm20.626-4.012c-.156.028-.435.047-.822.047h-29.249c-.387 0-.785-.019-1.106-.047-.331-.029-.583-.065-.703-.108l-4.28-1.566-3.985-1.463c-.103-.035-.051-.07.112-.091.171-.025.451-.039.802-.039h27.085l1.037.039c.313.021.575.056.693.091l5.044 1.463 5.406 1.566c.148.043.122.079-.034.108zm-38.008-1.675l4.214 1.566c.109.043.058.079-.113.108s-.474.047-.86.047h-29.25c-.387 0-.762-.019-1.067-.047s-.541-.065-.624-.108l-3.086-1.566-2.874-1.463c-.077-.035.001-.07.188-.091s.478-.039.828-.039h27.085l1.011.039c.29.021.526.056.618.091l3.93 1.463zm-32.634 0l3.021 1.566c.082.043.003.079-.193.108s-.513.047-.89.047h-29.26c-.376 0-.748-.019-1.028-.047-.291-.029-.489-.065-.543-.108l-1.895-1.566-1.762-1.463c-.052-.035.053-.07.263-.091.199-.025.505-.039.854-.039h27.085l.974.039c.277.021.487.056.563.091l2.811 1.463zm-30.807 1.567c.055.043-.061.079-.272.108a7.94 7.94 0 0 1-.929.047h-29.26c-.376 0-.734-.019-1-.047-.254-.029-.426-.065-.453-.108l-.701-1.566-.65-1.463c-.015-.035.115-.07.329-.091.224-.025.54-.039.891-.039h27.085l.947.039c.264.021.438.056.488.091l1.697 1.463 1.828 1.566zm-32.91 2.252l.753 1.868c.018.049-.126.094-.389.128s-.634.053-1.049.053h-31.972c-.416 0-.789-.02-1.054-.053s-.423-.079-.4-.128l.582-1.868.537-1.727c.012-.043.18-.084.443-.109s.619-.047.996-.047h29.394l1.011.047c.255.025.427.066.453.109l.695 1.727zm-34.187-3.819l-.558 1.566c-.012.043-.181.079-.443.108-.252.028-.608.047-.996.047h-29.249c-.387 0-.708-.019-.933-.047-.214-.029-.333-.065-.283-.108l1.684-1.566 1.563-1.463c.037-.035.218-.07.479-.091.251-.025.593-.039.943-.039h27.085l.885.039c.226.021.359.056.347.091l-.524 1.463zm-32.624 0l-1.75 1.566c-.051.043-.246.079-.534.108a10.71 10.71 0 0 1-1.024.047h-29.26c-.376 0-.695-.019-.894-.047s-.281-.065-.203-.108l2.877-1.566 2.675-1.463c.073-.035.27-.07.555-.091a11.19 11.19 0 0 1 .97-.039h27.085l.858.039c.202.021.309.056.272.091l-1.627 1.463zm-29.895-1.463l-2.739 1.463-2.943 1.566c-.088.043-.311.079-.614.108l-1.063.047h-29.26c-.376 0-.681-.019-.855-.047s-.239-.065-.123-.108l4.07-1.566 3.787-1.463c.099-.035.332-.07.62-.091l1.007-.039h27.085l.832.039c.188.021.27.056.196.091zm-31.523 0l-3.851 1.463-4.136 1.566c-.117.043-.365.079-.694.108l-1.102.047h-29.249c-.387 0-.668-.019-.827-.047s-.187-.065-.043-.108l5.263-1.566 4.909-1.463c.114-.035.373-.07.685-.091l1.033-.039h27.085l.795.039c.176.021.231.056.132.091zm-31.523 0l-4.963 1.463-5.329 1.566c-.144.043-.43.079-.773.108l-1.141.047H75.468c-.388 0-.655-.019-.788-.047s-.135-.065.037-.108l6.455-1.566 6.021-1.463c.151-.035.425-.07.761-.091l1.06-.039h27.085c.35 0 .619.014.769.039s.18.056.054.091zm-31.522 0l-6.075 1.463-6.521 1.566c-.172.043-.495.079-.854.108l-1.169.047h-29.26c-.376 0-.641-.019-.759-.047-.107-.029-.072-.065.127-.108l7.648-1.566 7.132-1.463c.177-.035.487-.07.826-.091l1.096-.039h27.085c.35 0 .606.014.742.039s.143.056-.018.091zm-12.855 3.555a6.08 6.08 0 0 1 .865-.109l1.181-.047h29.394c.377 0 .668.019.827.047.15.025.175.066.031.109l-5.874 1.727-6.35 1.868c-.163.049-.494.094-.881.128l-1.254.053H58.511c-.416 0-.708-.02-.849-.053-.13-.034-.111-.079.092-.128l7.684-1.868 7.107-1.727zm20.058 4.221c.174-.05.499-.099.897-.133l1.255-.053h32.138c.427 0 .748.019.931.053.194.034.231.083.097.133l-5.468 2.076-5.961 2.255c-.157.063-.496.118-.901.157s-.892.067-1.361.067H78.981c-.458 0-.8-.024-.963-.067s-.167-.095.045-.157l7.57-2.255 6.97-2.076zm-14.673 4.871h35.462c.47 0 .816.023 1.011.063.203.043.235.099.065.162l-6.695 2.536-7.346 2.788c-.206.075-.6.146-1.07.195l-1.523.083H58.541c-.504 0-.869-.033-1.04-.083-.16-.05-.133-.12.12-.195l9.351-2.788 8.521-2.536c.214-.063.596-.119 1.034-.162l1.403-.063zm22.594 6.501c.198-.08.593-.151 1.063-.201s1.02-.084 1.537-.084h39.541c.517 0 .928.034 1.174.084.235.05.314.121.165.201l-5.959 3.175-6.628 3.525c-.176.098-.58.187-1.075.248-.507.063-1.106.103-1.686.103H84.303c-.579 0-1.003-.04-1.214-.103s-.218-.15.037-.248l9.15-3.525 8.248-3.175zm33.798 6.7l6.471-3.525 5.82-3.175c.148-.08.484-.151.921-.201.427-.05.958-.084 1.475-.084h39.541c.517 0 .946.034 1.225.084s.418.121.33.201l-3.554 3.175-3.937 3.525c-.108.098-.446.187-.893.248s-1.015.103-1.594.103h-44.354c-.579 0-1.035-.04-1.294-.103-.271-.061-.344-.15-.157-.248zm51.185 0l3.791-3.525 3.415-3.175c.076-.08.364-.151.758-.201a11.67 11.67 0 0 1 1.414-.084h39.54c.517 0 .975.034 1.298.084.312.05.498.121.471.201l-1.126 3.175-1.256 3.525c-.042.098-.302.187-.701.248-.41.063-.946.103-1.525.103H187.23c-.579 0-1.067-.04-1.375-.103s-.444-.15-.348-.248zm50.417-7.456c-.362.05-.834.083-1.351.083H195.29c-.516 0-.945-.033-1.224-.083-.291-.05-.418-.12-.333-.195l2.988-2.788 2.731-2.536c.058-.063.311-.119.66-.162s.79-.063 1.259-.063h35.463a8.89 8.89 0 0 1 1.155.063c.292.043.464.099.439.162l-.906 2.536-.994 2.788c-.025.075-.253.145-.604.195zm1.889 3.931l.988-3.175c.026-.08.254-.151.616-.201.351-.05.824-.084 1.34-.084h39.541c.516 0 1.004.034 1.358.084s.602.121.635.201l1.279 3.175 1.436 3.525c.037.098-.17.187-.52.248s-.866.103-1.445.103h-44.354c-.579 0-1.087-.04-1.443-.103-.367-.062-.57-.15-.542-.248l1.111-3.525zm47.087-3.175c-.034-.08.135-.151.453-.201s.773-.084 1.29-.084h39.54c.517 0 1.021.034 1.421.084.388.05.682.121.776.201l3.707 3.175 4.104 3.525c.116.098-.013.187-.314.248-.313.063-.786.103-1.365.103h-44.354c-.58 0-1.119-.04-1.535-.103-.404-.062-.685-.15-.724-.248l-1.58-3.525-1.419-3.175zm49.936 3.175l-3.847-3.175c-.096-.08.025-.151.312-.201a7.29 7.29 0 0 1 1.217-.084h39.54c.517 0 1.051.034 1.482.084.443.05.785.121.94.201l6.113 3.175 6.794 3.525c.185.098.12.187-.133.248s-.706.103-1.285.103h-44.354a12.1 12.1 0 0 1-1.604-.103c-.464-.062-.799-.15-.917-.248l-4.258-3.525zm48.504 0l-6.251-3.175c-.156-.08-.083-.151.147-.201.242-.05.639-.084 1.155-.084h39.54a15.53 15.53 0 0 1 1.556.084c.476.05.876.121 1.082.201l8.54 3.175 9.475 3.525c.264.098.266.187.061.248-.217.063-.626.103-1.205.103h-44.354c-.58 0-1.184-.04-1.695-.103-.501-.062-.912-.15-1.098-.248l-6.953-3.525zm34.661-3.931c-.21.05-.589.083-1.104.083h-39.283c-.504 0-1.039-.033-1.47-.083-.442-.05-.783-.12-.937-.195l-5.488-2.788-4.999-2.536c-.12-.063-.05-.119.179-.162.221-.04.59-.063 1.049-.063h35.463l1.365.063c.413.043.757.099.932.162l6.813 2.536 7.494 2.788c.2.075.185.145-.014.195zm-14.048-6.285l-6.168-2.255-5.659-2.076c-.149-.05-.106-.099.074-.133.191-.034.51-.053.927-.053h32.148l1.26.053c.391.034.73.083.909.133l7.149 2.076 7.788 2.255c.207.063.222.118.049.157-.159.043-.487.067-.946.067h-35.26a13.57 13.57 0 0 1-1.355-.067c-.408-.039-.752-.095-.916-.157zm23.407-4.957l-6.511-1.868-6.032-1.727c-.149-.043-.138-.084.021-.109s.435-.047.822-.047h29.394l1.185.047a6.08 6.08 0 0 1 .865.109l7.276 1.727 7.856 1.868c.207.049.23.094.103.128-.137.033-.428.053-.844.053h-31.982c-.416 0-.858-.02-1.259-.053-.391-.034-.715-.079-.894-.128zm17.58-4.012c-.13.028-.406.047-.783.047h-29.26c-.376 0-.788-.019-1.134-.047s-.637-.065-.784-.108l-5.473-1.566-5.107-1.463c-.118-.035-.093-.07.058-.091s.414-.039.765-.039h27.085l1.063.039c.327.021.615.056.769.091l6.155 1.463 6.6 1.566c.175.043.177.079.046.108zm-12.919-3.583l-5.677-1.336-5.324-1.251c-.127-.031-.118-.059.004-.082s.371-.031.705-.031h25.104l.993.031.759.082 6.216 1.251 6.641 1.336c.179.035.204.07.081.091-.109.024-.352.038-.712.038h-26.958a15.27 15.27 0 0 1-1.063-.038c-.329-.021-.616-.056-.769-.091zm-7.382-1.336l5.623 1.336c.144.035.143.07.017.091-.133.024-.389.038-.749.038h-26.958c-.35 0-.72-.014-1.036-.038s-.565-.056-.693-.091l-4.66-1.336-4.371-1.251c-.112-.031-.08-.059.066-.082.138-.021.395-.031.72-.031h25.103l.979.031.686.082 5.273 1.251zm-30.163 0l4.598 1.336c.128.035.102.07-.048.091s-.416.038-.775.038h-26.959c-.35 0-.707-.014-1.01-.038-.289-.021-.525-.056-.617-.091l-3.654-1.336-3.408-1.251c-.088-.031-.031-.059.118-.082.161-.021.43-.031.755-.031h25.102l.955.031.624.082 4.319 1.251zm-30.172 0l3.592 1.336c.102.035.039.07-.124.091-.172.024-.451.038-.802.038h-26.958a11.81 11.81 0 0 1-.974-.038c-.276-.021-.486-.056-.563-.091l-2.627-1.336-2.465-1.251c-.063-.031.017-.059.189-.082s.445-.031.779-.031h25.093l.93.031c.277.023.484.051.572.082l3.358 1.251zm-30.162 0l2.575 1.336c.066.035-.012.07-.199.091s-.478.038-.828.038h-26.957c-.351 0-.693-.014-.947-.038-.264-.021-.447-.056-.488-.091l-1.611-1.336-1.513-1.251c-.038-.031.056-.059.253-.082.188-.021.469-.031.794-.031h25.103l.905.031c.253.023.446.051.499.082l2.414 1.251zm-28.603 1.336c.04.035-.064.07-.274.091a7.82 7.82 0 0 1-.854.038h-26.958a9.86 9.86 0 0 1-.921-.038c-.239-.021-.397-.056-.412-.091l-.596-1.336-.57-1.251c-.014-.031.115-.059.315-.082.211-.021.494-.031.829-.031H301.2l.87.031c.24.023.409.051.447.082l1.462 1.251 1.56 1.336zm-30.417 1.908l.635 1.566c.017.043-.115.079-.363.108-.237.028-.569.047-.956.047h-29.25c-.387 0-.732-.019-.972-.047s-.385-.065-.363-.108l.481-1.566.461-1.463c.011-.035.167-.07.404-.091s.567-.039.917-.039H273.2l.921.039c.24.021.398.056.413.091l.588 1.463zm-31.477-3.244l-.473 1.336c-.011.035-.167.07-.404.091a9.72 9.72 0 0 1-.917.038h-26.958c-.35 0-.656-.014-.868-.038-.202-.021-.309-.056-.272-.091l1.437-1.336 1.347-1.251c.036-.031.192-.059.43-.082s.553-.031.878-.031h25.103l.832.031c.202.023.323.051.312.082l-.447 1.251zm-30.163 0l-1.489 1.336c-.047.035-.218.07-.479.091s-.594.038-.943.038h-26.958a7.1 7.1 0 0 1-.832-.038c-.188-.021-.27-.056-.207-.091l2.453-1.336 2.289-1.251c.06-.031.251-.059.502-.082s.567-.031.902-.031h25.103l.796.031c.189.023.296.051.26.082l-1.397 1.251zm-30.162 0l-2.515 1.336c-.063.035-.27.07-.544.091l-.97.038h-26.958c-.36 0-.642-.014-.806-.038-.175-.021-.23-.056-.132-.091l3.469-1.336 3.243-1.251c.084-.031.29-.059.564-.082l.917-.031h25.103l.782.031c.175.023.258.051.198.082l-2.351 1.251zm-26.869-1.251l-3.303 1.251-3.521 1.336c-.099.035-.321.07-.62.091l-.996.038h-26.968c-.35 0-.619-.014-.769-.038s-.181-.056-.067-.091l4.485-1.336 4.205-1.251c.099-.031.329-.059.617-.082l.952-.031h25.103l.747.031c.162.024.22.051.135.082zm-29.209 0l-4.256 1.251-4.537 1.336c-.125.035-.383.07-.685.091l-1.043.038H89.763c-.35 0-.607-.014-.743-.038-.127-.021-.142-.056.009-.091l5.5-1.336 5.148-1.251c.134-.031.387-.059.689-.082l.976-.031h25.103l.723.031c.139.024.184.051.074.082zm-29.209 0l-5.209 1.251-5.563 1.336c-.14.035-.425.07-.75.091l-1.069.038H58.483c-.35 0-.595-.014-.716-.038-.114-.021-.093-.056.083-.091l6.517-1.336 6.102-1.251c.158-.031.426-.059.741-.082l1.001-.031h25.103l.708.031c.124.024.135.051.011.082zm-90.458 6.217c-.376 0-.628-.019-.721-.047s-.03-.065.218-.108l8.831-1.566 8.244-1.463c.203-.035.539-.07.901-.091l1.123-.039h27.085c.35 0 .594.014.716.039.114.021.092.056-.085.091l-7.196 1.463-7.714 1.566c-.21.043-.549.079-.934.108l-1.208.047H7.575zm13.835 4.145c-.416 0-.695-.02-.809-.053s-.055-.079.188-.128l9.111-1.868 8.418-1.727c.211-.043.565-.084.946-.109l1.209-.047h29.404c.376 0 .655.019.787.047s.124.066-.05.109l-7.186 1.727-7.765 1.868c-.214.049-.575.094-.989.128l-1.295.053H21.41zm15.915 4.777l9.299-2.255 8.535-2.076c.214-.05.579-.099.994-.133l1.307-.053h32.138c.428 0 .733.019.891.053s.174.083-.001.133l-7.055 2.076-7.679 2.255c-.202.063-.583.118-1.018.157l-1.406.067H38.07c-.458 0-.773-.024-.907-.067s-.094-.095.162-.157zm-24.357 6.368c-.516 0-.851-.033-.979-.083s-.053-.12.26-.195l11.476-2.788 10.451-2.536c.258-.063.683-.119 1.151-.162l1.459-.063h35.463c.47 0 .801.023.966.063s.151.099-.063.162l-8.625 2.536-9.47 2.788c-.266.075-.707.146-1.209.195l-1.596.083H12.968zm64.23 7.724H32.845c-.58 0-.972-.04-1.134-.103-.174-.062-.104-.15.218-.248l11.841-3.525 10.654-3.175c.271-.08.713-.151 1.227-.201l1.599-.084h39.541c.516 0 .899.034 1.101.084s.223.121.024.201l-8.387 3.175-9.308 3.525c-.255.098-.725.187-1.268.248s-1.175.103-1.755.103zm35.617 9.551c-.241.131-.729.246-1.318.328-.604.087-1.299.141-1.963.141H58.601c-.664 0-1.13-.054-1.34-.141-.226-.082-.183-.197.148-.328l11.958-4.602 10.61-4.088c.257-.099.73-.193 1.287-.256a15.28 15.28 0 0 1 1.761-.107h44.679c.592 0 1.036.041 1.304.107.259.063.315.157.137.256l-7.68 4.088-8.65 4.602zm58.735 0c-.15.131-.549.246-1.071.328-.535.087-1.193.141-1.857.141h-50.934c-.664 0-1.167-.054-1.446-.141s-.339-.197-.099-.328l8.445-4.602 7.499-4.088c.189-.099.595-.193 1.091-.256.509-.066 1.109-.107 1.69-.107h44.68c.581 0 1.068.041 1.374.107s.442.157.333.256l-4.569 4.088-5.136 4.602zm60.37-4.601l-1.635 4.602c-.047.131-.358.246-.823.328s-1.087.141-1.751.141h-50.933c-.665 0-1.205-.054-1.553-.141s-.495-.197-.346-.328l4.944-4.602 4.388-4.088c.109-.099.437-.193.896-.256a11.46 11.46 0 0 1 1.609-.107h44.679c.581 0 1.089.041 1.456.107.356.063.559.157.528.256l-1.459 4.088zm56.524 4.93c-.409.087-.981.141-1.646.141h-50.934c-.665 0-1.253-.054-1.658-.141s-.639-.197-.606-.328l1.443-4.602 1.277-4.088c.041-.099.302-.193.7-.256.411-.066.947-.107 1.527-.107h44.68c.592 0 1.132.041 1.537.107.416.063.686.157.723.256l1.665 4.088 1.854 4.602c.058.13-.164.245-.562.328zm58.982 0c-.34.087-.875.141-1.551.141h-50.922c-.664 0-1.29-.054-1.764-.141s-.795-.197-.854-.328l-2.059-4.602-1.834-4.088c-.039-.099.154-.193.505-.256s.865-.107 1.445-.107h44.68c.581 0 1.165.041 1.619.107s.802.157.919.256l4.764 4.088 5.367 4.602c.15.13.027.245-.315.328zm58.982 0c-.271.087-.769.141-1.445.141h-50.922c-.664 0-1.326-.054-1.87-.141s-.95-.197-1.101-.328l-5.571-4.602-4.933-4.088c-.131-.099-.004-.193.309-.256.3-.066.772-.107 1.364-.107h44.68c.581 0 1.185.041 1.7.107.502.063.917.157 1.115.256l7.874 4.088 8.869 4.602c.252.13.205.245-.069.328zm46.422-4.93l12.382 4.602c.343.131.385.246.179.328s-.675.141-1.34.141H413.13a14.35 14.35 0 0 1-1.977-.141c-.597-.082-1.095-.197-1.349-.328l-9.072-4.602-8.056-4.088c-.199-.099-.14-.193.113-.256s.702-.107 1.283-.107h44.68c.593 0 1.229.041 1.781.107.563.063 1.045.157 1.311.256l10.986 4.088zm12.593-12.202c.52.05.969.121 1.246.201l10.946 3.175 12.166 3.525c.33.098.397.187.24.248s-.545.103-1.124.103h-44.354c-.579 0-1.214-.04-1.764-.103-.561-.062-1.037-.15-1.302-.248l-9.632-3.525-8.668-3.175c-.218-.08-.192-.151.006-.201s.576-.084 1.094-.084h39.54a17.31 17.31 0 0 1 1.606.084zm-11.655-3.538l9.618 2.788c.261.075.292.146.126.195-.155.05-.516.083-1.032.083h-39.282c-.516 0-1.068-.033-1.543-.083-.463-.05-.863-.12-1.076-.195l-7.613-2.788-6.928-2.536c-.165-.063-.139-.119.05-.162.202-.04.546-.063 1.016-.063h35.452l1.42.063c.442.043.83.099 1.049.162l8.743 2.536zm19.846-5.557l9.495 2.255c.263.063.31.118.188.157-.13.043-.443.067-.912.067h-35.249a15.21 15.21 0 0 1-1.411-.067c-.438-.039-.825-.095-1.043-.157l-7.877-2.255-7.245-2.076c-.179-.05-.177-.099-.013-.133.153-.034.458-.053.885-.053h32.139l1.301.053c.418.034.798.083 1.006.133l8.736 2.076zm6.759-6.406c.394.025.741.066.956.109l8.588 1.727 9.272 1.868c.258.049.31.094.21.128-.11.033-.387.053-.803.053h-31.982a17.14 17.14 0 0 1-1.3-.053l-.99-.128-7.938-1.868-7.345-1.727c-.187-.043-.192-.084-.06-.109s.406-.047.783-.047h29.394l1.215.047zm-9.444-1.983l7.782 1.566c.213.043.252.079.137.108-.104.028-.367.047-.744.047h-29.26c-.377 0-.802-.019-1.174-.047l-.863-.108-6.666-1.566-6.219-1.463c-.154-.035-.154-.07-.018-.091.122-.025.388-.039.738-.039h27.085l1.09.039.845.091 7.267 1.463zm6.053-4.577l.811.082 7.17 1.251 7.655 1.336c.205.035.256.07.157.091s-.326.038-.676.038H465.13c-.35 0-.734-.014-1.089-.038l-.833-.091-6.703-1.336-6.267-1.251c-.161-.031-.168-.059-.059-.082s.346-.031.671-.031h25.103l1.029.031zm-39.91-2.608c.105-.017.327-.027.638-.027h23.394l.949.027.729.073 6.205 1.081 6.599 1.15c.189.034.209.062.12.082-.1.021-.328.034-.652.034h-24.992c-.336 0-.693-.014-1.007-.034l-.748-.082-5.771-1.15-5.435-1.081c-.139-.03-.14-.054-.029-.073zm-27.165 0c.127-.017.35-.027.66-.027h23.394l.927.027.667.073 5.387 1.081 5.732 1.15c.154.034.159.062.047.082s-.343.034-.667.034h-25.003c-.324 0-.681-.014-.981-.034l-.686-.082-4.895-1.15-4.605-1.081c-.124-.03-.102-.054.023-.073zm-27.166 0a6.38 6.38 0 0 1 .685-.027h23.394l.902.027.618.073 4.557 1.081 4.855 1.15c.129.034.11.062-.015.082s-.368.034-.692.034h-25.003c-.324 0-.669-.014-.946-.034-.287-.021-.52-.048-.633-.082l-4.019-1.15-3.786-1.081c-.09-.03-.054-.054.083-.073zm-27.166 0a6.96 6.96 0 0 1 .698-.027h23.394l.89.027c.263.02.468.043.567.073l3.737 1.081 3.969 1.15c.104.034.072.062-.066.082a5.87 5.87 0 0 1-.729.034h-25.002a12.75 12.75 0 0 1-.921-.034c-.275-.021-.482-.048-.562-.082l-3.151-1.15-2.957-1.081c-.075-.03-.016-.054.133-.073zm-27.165 0c.163-.017.42-.027.721-.027h23.394l.866.027c.25.02.433.043.508.073l2.918 1.081 3.092 1.15c.09.034.033.062-.129.082s-.418.034-.752.034h-24.993a12.04 12.04 0 0 1-.906-.034c-.251-.021-.435-.048-.499-.082l-2.274-1.15-2.128-1.081c-.062-.03.019-.054.182-.073zm-27.166 0a8.48 8.48 0 0 1 .745-.027h23.394l.842.027c.238.02.407.043.458.073l2.089 1.081 2.215 1.15c.064.034-.016.062-.19.082s-.443.034-.768.034h-25.003c-.324 0-.643-.014-.881-.034s-.397-.048-.438-.082l-1.397-1.15-1.308-1.081c-.028-.03.066-.054.242-.073zm-27.166 0a9.31 9.31 0 0 1 .769-.027h23.394l.818.027c.216.02.371.043.408.073l1.26 1.081 1.339 1.15c.038.034-.056.062-.253.082-.188.021-.469.034-.793.034h-25.003c-.325 0-.62-.014-.846-.034s-.371-.048-.386-.082l-.511-1.15-.488-1.081c-.014-.03.104-.054.292-.073zm-27.849 1.154l.341-1.081c0-.03.131-.054.342-.073a9.99 9.99 0 0 1 .792-.027h23.394l.794.027c.203.02.336.043.35.073l.439 1.081.472 1.15c.004.034-.114.062-.315.082-.211.021-.503.034-.827.034h-24.993c-.335 0-.619-.014-.832-.034-.202-.021-.333-.048-.322-.082l.365-1.15zm-.485 1.536c.011-.031.154-.059.378-.082s.518-.031.843-.031h25.103l.856.031c.226.023.371.051.385.082l.498 1.251.544 1.336c.015.035-.116.07-.329.091a8.94 8.94 0 0 1-.891.038h-26.959c-.35 0-.668-.014-.894-.038s-.348-.056-.337-.091l.41-1.336.393-1.251zm-26.399-2.617c.035-.03.179-.054.402-.073l.816-.027h23.394l.771.027c.19.02.31.043.299.073l-.389 1.081-.406 1.15c-.011.034-.153.062-.377.082s-.519.034-.853.034h-24.993c-.324 0-.606-.014-.806-.034-.189-.021-.287-.048-.261-.082l1.242-1.15 1.161-1.081zm-26.764-.073l.839-.027h23.394l.748.027c.177.02.274.043.249.073l-1.219 1.081-1.282 1.15c-.036.034-.203.062-.44.082l-.868.034H189c-.324 0-.595-.014-.771-.034s-.259-.048-.198-.082l2.109-1.15 1.989-1.081c.049-.03.216-.054.452-.073zm-27.166 0l.853-.027h23.394l.734.027c.165.02.248.043.189.073l-2.038 1.081-2.159 1.15c-.061.034-.242.062-.492.082l-.903.034h-25.002c-.324 0-.583-.014-.746-.034s-.222-.048-.136-.082l2.985-1.15 2.809-1.081c.074-.03.264-.054.512-.073zm-27.165 0l.876-.027h23.394l.71.027c.152.02.212.043.139.073l-2.857 1.081-3.045 1.15c-.076.034-.291.062-.554.082l-.928.034h-24.992a6.03 6.03 0 0 1-.731-.034c-.141-.021-.186-.048-.075-.082l3.863-1.15 3.638-1.081c.097-.03.3-.054.562-.073zm-27.166 0l.9-.027h23.394l.687.027c.139.02.176.043.079.073l-3.676 1.081-3.922 1.15c-.101.034-.33.062-.616.082l-.943.034h-25.003c-.324 0-.568-.014-.695-.034-.138-.021-.148-.048-.022-.082l4.739-1.15 4.468-1.081c.109-.03.336-.054.61-.073zm-27.166 0l.924-.027h23.394l.663.027c.127.02.151.043.03.073l-4.506 1.081-4.788 1.15c-.137.034-.38.062-.679.082l-.978.034H72.975c-.324 0-.556-.014-.671-.034s-.111-.048.04-.082l5.616-1.15 5.287-1.081c.135-.03.384-.054.671-.073zm-27.166 0l.947-.027h23.394l.64.027c.114.02.115.043-.02.073l-5.336 1.081-5.665 1.15c-.162.034-.429.062-.74.082l-1.003.034H43.966c-.325 0-.544-.014-.646-.034s-.074-.048.102-.082l6.503-1.15 6.106-1.081c.159-.03.422-.054.721-.073zm-27.166 0l.971-.027h23.394l.616.027c.102.02.079.043-.08.073l-6.155 1.081-6.542 1.15c-.176.034-.468.062-.803.082l-1.028.034H14.967c-.324 0-.542-.014-.63-.034-.078-.021-.027-.048.174-.082l7.369-1.15 6.936-1.081c.172-.03.458-.054.77-.073z"/></svg>