<svg xmlns="http://www.w3.org/2000/svg" xmlns:xlink="http://www.w3.org/1999/xlink" width="850.394" height="850.394" xmlns:v="https://vecta.io/nano"><style><![CDATA[.B{clip-path:url(#B)}.C{stroke-width:17.008}.D{stroke-miterlimit:10}]]></style><path d="M693.48 680.428h61.646v38.232H693.48zm-589.381 0h61.647v38.232h-61.647z" fill="none" stroke="#000" class="C D"/><defs><path id="A" d="M0 0h850.394v850.394H0z"/></defs><clipPath id="B"><use xlink:href="#A"/></clipPath><g fill="none" stroke="#000" class="C"><circle cx="150.74" cy="242.864" r="15.873" class="B"/><circle cx="150.74" cy="635.886" r="15.873" class="B"/><circle cx="708.707" cy="242.864" r="15.873" class="B"/><circle cx="708.707" cy="635.886" r="15.873" class="B"/><g class="D"><path d="M342.622 312.12h171.877v51.914H342.622zm281.243 294.647H233.256a12.04 12.04 0 0 1-12-12v-4.063a12.04 12.04 0 0 1 12-12h390.609c6.601 0 12 5.4 12 12v4.063c0 6.6-5.399 12-12 12z" class="B"/><path d="M298.426 606.767h39.987v29.119h-39.987zm221.222 0h39.986v29.119h-39.986zM303.336 357.022v221.683m250.216-221.683v221.683m0-338.843v77.637m-250.216-77.637v77.637M150.74 338.077h191.882m171.877 0h194.208M428.561 196.366v-70.855c0-11.225 11.571-51.914 79.387-51.914 66.413 0 80.214 38.585 80.214 51.914v70.855M428.561 309.895v-51.159" class="B"/><path d="M643.447 239.862H214.715l-65.26 65.26v268.073l65.26 65.26h428.732l65.26-65.26V305.122z" class="B"/><path stroke-linejoin="round" d="M104.099 196.366h651.028v484.062H104.099z" class="B"/><path stroke-linejoin="bevel" d="M428.561 397.398l-36.826-33.364h73.883z" class="B"/></g></g></svg>