<svg xmlns="http://www.w3.org/2000/svg" width="283.465" height="283.465" viewBox="648.862 648.863 283.465 283.465" fill="#fff" xmlns:v="https://vecta.io/nano"><path d="M866.543 742.369l-64.953 40.996c-3.135 2.102-6.175 3.837-9.204 5.865l-9.546-5.938-66.251-40.923c-2.507 0-4.076 1.482-4.076 4.075-.001 2.444 2.102 3.358 3.797 4.355 11.296 6.644 73.372 46.525 75.395 46.839 1.814.273 4.236-1.532 5.484-2.379l64.696-41.243c3.442-2.102 8.733-4.828 8.733-7.573 0-2.591-1.563-4.074-4.075-4.074zm9.079-93.646H705.553c-31.311 0-56.69 25.38-56.69 56.689v170.07c0 31.31 25.38 56.7 56.69 56.7h170.069c31.311 0 56.7-25.391 56.7-56.7v-170.07c0-31.309-25.389-56.689-56.7-56.689zm9.667 195.924c0 5.798-4.291 10.596-10.186 10.596H707.219c-5.902 0-10.186-4.744-10.186-10.596V737.074c0-6.299 3.591-11.411 10.186-11.411h167.885c6.352 0 10.186 4.988 10.186 11.411v107.573z"/></svg>