<svg xmlns="http://www.w3.org/2000/svg" width="283.465" height="283.465" viewBox="555.696 763.446 283.465 283.465" xmlns:v="https://vecta.io/nano"><path fill="#fff" d="M782.473 763.442h-170.08c-31.32 0-56.7 25.39-56.7 56.7v170.08c0 31.31 25.39 56.689 56.7 56.689h170.08c31.31 0 56.689-25.38 56.689-56.689v-170.08c0-31.31-25.38-56.7-56.689-56.7zM649.145 982.6H611.97V862.566h37.175V982.6zm-18.767-135.752c-12.143 0-21.984-9.918-21.984-22.15s9.842-22.15 21.984-22.15 21.979 9.918 21.979 22.15-9.835 22.15-21.979 22.15zM788.447 982.6h0-36.995v-63.011c0-17.275-6.565-26.93-20.238-26.93-14.877 0-22.646 10.045-22.646 26.93V982.6h-35.655V862.566h35.655v16.169s10.719-19.837 36.19-19.837c25.462 0 43.689 15.547 43.689 47.705V982.6z"/></svg>